<?xml version="1.0" encoding="UTF-8" standalone="no"?>
<!DOCTYPE svg PUBLIC "-//W3C//DTD SVG 1.0//EN" "http://www.w3.org/TR/2001/PR-SVG-20010719/DTD/svg10.dtd">
<svg width="44cm" height="18cm" viewBox="7 68 871 356" xmlns="http://www.w3.org/2000/svg" xmlns:xlink="http://www.w3.org/1999/xlink">
  <g>
    <g>
      <ellipse style="fill: #ffffff" cx="184.663" cy="245.608" rx="176.5" ry="176.5"/>
      <ellipse style="fill: none; fill-opacity:0; stroke-width: 2; stroke: #000000" cx="184.663" cy="245.608" rx="176.5" ry="176.5"/>
      <ellipse style="fill: none; fill-opacity:0; stroke-width: 2; stroke: #000000" cx="184.663" cy="245.608" rx="176.5" ry="176.5"/>
    </g>
    <text font-size="12.8" style="fill: #000000;text-anchor:start;font-family:sans-serif;font-style:normal;font-weight:normal" x="184.663" y="245.608">
      <tspan x="184.663" y="245.608"></tspan>
    </text>
    <line style="fill: none; fill-opacity:0; stroke-width: 2; stroke: #000000" x1="181.718" y1="193.682" x2="182.467" y2="241.5"/>
    <line style="fill: none; fill-opacity:0; stroke-width: 3; stroke: #000000" x1="361.163" y1="245.608" x2="376.544" y2="246.337"/>
    <g>
      <line style="fill: none; fill-opacity:0; stroke-width: 3; stroke: #000000" x1="376.544" y1="246.337" x2="420.919" y2="246.337"/>
      <line style="fill: none; fill-opacity:0; stroke-width: 3; stroke: #000000" x1="465.294" y1="246.337" x2="509.669" y2="246.337"/>
      <line style="fill: none; fill-opacity:0; stroke-width: 3; stroke: #000000" x1="420.919" y1="224.15" x2="465.294" y2="268.525"/>
      <line style="fill: none; fill-opacity:0; stroke-width: 3; stroke: #000000" x1="465.294" y1="224.15" x2="420.919" y2="268.525"/>
    </g>
    <g>
      <rect style="fill: #ffffff" x="384.544" y="140.208" width="117.25" height="62.9"/>
      <text font-size="12.8" style="fill: #000000;text-anchor:start;font-family:sans-serif;font-style:normal;font-weight:normal" x="384.544" y="152.108">
        <tspan x="384.544" y="152.108">NO trust between </tspan>
        <tspan x="384.544" y="168.108">smartphone &amp;</tspan>
        <tspan x="384.544" y="184.108">Homenetwork</tspan>
        <tspan x="384.544" y="200.108">in the beginning</tspan>
      </text>
    </g>
    <line style="fill: none; fill-opacity:0; stroke-width: 3; stroke: #000000" x1="509.669" y1="246.337" x2="523.722" y2="246.385"/>
    <g>
      <ellipse style="fill: #ffffff" cx="700" cy="246.385" rx="176.278" ry="176.278"/>
      <ellipse style="fill: none; fill-opacity:0; stroke-width: 2; stroke: #000000" cx="700" cy="246.385" rx="176.278" ry="176.278"/>
      <ellipse style="fill: none; fill-opacity:0; stroke-width: 2; stroke: #000000" cx="700" cy="246.385" rx="176.278" ry="176.278"/>
    </g>
    <line style="fill: none; fill-opacity:0; stroke-width: 2; stroke: #000000" x1="705.004" y1="319.224" x2="755.89" y2="217.8"/>
    <line style="fill: none; fill-opacity:0; stroke-width: 2; stroke: #000000" x1="633.45" y1="223.994" x2="679.336" y2="319.176"/>
    <line style="fill: none; fill-opacity:0; stroke-width: 2; stroke: #000000" x1="658.324" y1="183.68" x2="720.076" y2="188.046"/>
    <g>
      <rect style="fill: #ffffff" x="743.05" y="252.5" width="121.95" height="54"/>
      <rect style="fill: none; fill-opacity:0; stroke-width: 2; stroke: #000000" x="743.05" y="252.5" width="121.95" height="54"/>
      <text font-size="12.8" style="fill: #000000;text-anchor:middle;font-family:sans-serif;font-style:normal;font-weight:normal" x="804.025" y="275.4">
        <tspan x="804.025" y="275.4">Homenetwork's</tspan>
        <tspan x="804.025" y="291.4">Trust circle</tspan>
      </text>
    </g>
    <text font-size="12.8" style="fill: #000000;text-anchor:start;font-family:sans-serif;font-style:normal;font-weight:normal" x="818.026" y="273.5">
      <tspan x="818.026" y="273.5"></tspan>
    </text>
    <text font-size="12.8" style="fill: #000000;text-anchor:start;font-family:sans-serif;font-style:normal;font-weight:normal" x="770.469" y="190.795">
      <tspan x="770.469" y="190.795"></tspan>
    </text>
    <g>
      <g>
        <path style="fill: #0078aa" d="M 737.367 356.377 L 737.29,355.574 L 737.125,354.771 L 736.844,353.981 L 736.449,353.203 L 735.913,352.412 L 735.289,351.647 L 734.537,350.895 L 733.695,350.156 L 732.726,349.429 L 731.655,348.728 L 730.495,348.052 L 729.233,347.364 L 727.869,346.714 L 726.415,346.102 L 724.86,345.515 L 723.228,344.954 L 721.533,344.406 L 719.748,343.909 L 717.899,343.437 L 715.974,342.991 L 713.985,342.583 L 711.933,342.239 L 709.842,341.882 L 707.725,341.601 L 705.545,341.334 L 703.327,341.13 L 701.083,340.938 L 698.814,340.811 L 696.544,340.683 L 694.25,340.645 L 691.955,340.607 L 691.955,340.607 L 689.647,340.645 L 687.352,340.683 L 685.083,340.811 L 682.814,340.938 L 680.57,341.13 L 678.352,341.334 L 676.171,341.601 L 674.042,341.882 L 671.952,342.239 L 669.912,342.583 L 667.923,342.991 L 665.998,343.437 L 664.149,343.909 L 662.364,344.406 L 660.656,344.954 L 659.037,345.515 L 657.481,346.102 L 656.028,346.714 L 654.664,347.364 L 653.402,348.052 L 652.242,348.728 L 651.171,349.429 L 650.202,350.156 L 649.36,350.895 L 648.608,351.647 L 647.983,352.412 L 647.448,353.203 L 647.04,353.981 L 646.747,354.771 L 646.594,355.574 L 646.53,356.377 L 646.53,356.377 L 646.594,357.168 L 646.747,357.971 L 647.04,358.761 L 647.448,359.539 L 647.983,360.33 L 648.608,361.095 L 649.36,361.847 L 650.202,362.586 L 651.171,363.313 L 652.242,364.014 L 653.402,364.715 L 654.664,365.378 L 656.028,366.028 L 657.481,366.64 L 659.037,367.252 L 660.656,367.813 L 662.364,368.336 L 664.149,368.846 L 665.998,369.305 L 667.923,369.751 L 669.912,370.159 L 671.952,370.529 L 674.042,370.86 L 676.171,371.166 L 678.352,371.408 L 680.57,371.638 L 682.814,371.804 L 685.083,371.957 L 687.352,372.059 L 689.647,372.122 L 691.955,372.135 L 691.955,372.135 L 694.25,372.122 L 696.544,372.059 L 698.814,371.957 L 701.083,371.804 L 703.327,371.638 L 705.545,371.408 L 707.725,371.166 L 709.842,370.86 L 711.933,370.529 L 713.985,370.159 L 715.974,369.751 L 717.899,369.305 L 719.748,368.846 L 721.533,368.336 L 723.228,367.813 L 724.86,367.252 L 726.415,366.64 L 727.869,366.028 L 729.233,365.378 L 730.495,364.715 L 731.655,364.014 L 732.726,363.313 L 733.695,362.586 L 734.537,361.847 L 735.289,361.095 L 735.913,360.33 L 736.449,359.539 L 736.844,358.761 L 737.125,357.971 L 737.29,357.168 L 737.367,356.377z"/>
        <path style="fill: none; fill-opacity:0; stroke-width: 0.02; stroke: #aae6ff" d="M 736.831 356.122 L 736.768,355.319 L 736.615,354.554 L 736.321,353.764 L 735.926,352.999 L 735.403,352.234 L 734.741,351.482 L 734.052,350.755 L 733.185,350.016 L 732.229,349.302 L 731.171,348.588 L 729.998,347.925 L 728.748,347.262 L 727.397,346.624 L 725.956,346.012 L 724.427,345.426 L 722.795,344.89 L 721.086,344.381 L 719.327,343.858 L 717.491,343.424 L 715.579,342.965 L 713.59,342.57 L 711.576,342.213 L 709.51,341.882 L 707.381,341.601 L 705.227,341.334 L 703.008,341.13 L 700.79,340.938 L 698.533,340.811 L 696.264,340.722 L 693.982,340.645 L 691.7,340.645 L 691.7,340.645 L 689.392,340.645 L 687.123,340.722 L 684.841,340.811 L 682.61,340.938 L 680.379,341.13 L 678.173,341.334 L 676.006,341.601 L 673.877,341.882 L 671.799,342.213 L 669.784,342.57 L 667.795,342.965 L 665.883,343.424 L 664.06,343.858 L 662.288,344.381 L 660.579,344.89 L 658.96,345.426 L 657.443,346.012 L 656.003,346.624 L 654.638,347.262 L 653.363,347.925 L 652.229,348.588 L 651.158,349.302 L 650.202,350.016 L 649.36,350.755 L 648.621,351.482 L 647.983,352.234 L 647.473,352.999 L 647.065,353.764 L 646.772,354.554 L 646.606,355.319 L 646.543,356.122 L 646.543,356.122 L 646.606,356.9 L 646.772,357.703 L 647.065,358.455 L 647.473,359.233 L 647.983,360.011 L 648.621,360.75 L 649.36,361.49 L 650.202,362.229 L 651.158,362.93 L 652.229,363.644 L 653.363,364.32 L 654.638,364.957 L 656.003,365.608 L 657.443,366.232 L 658.96,366.793 L 660.579,367.342 L 662.288,367.864 L 664.06,368.374 L 665.883,368.82 L 667.795,369.254 L 669.784,369.662 L 671.799,370.019 L 673.877,370.338 L 676.006,370.644 L 678.173,370.899 L 680.379,371.102 L 682.61,371.281 L 684.841,371.408 L 687.123,371.523 L 689.392,371.587 L 691.7,371.6 L 691.7,371.6 L 693.982,371.587 L 696.264,371.523 L 698.533,371.408 L 700.79,371.281 L 703.008,371.102 L 705.227,370.899 L 707.381,370.644 L 709.51,370.338 L 711.576,370.019 L 713.59,369.662 L 715.579,369.254 L 717.491,368.82 L 719.327,368.374 L 721.086,367.864 L 722.795,367.342 L 724.427,366.793 L 725.956,366.232 L 727.397,365.608 L 728.748,364.957 L 729.998,364.32 L 731.171,363.644 L 732.229,362.93 L 733.185,362.229 L 734.052,361.49 L 734.741,360.75 L 735.403,360.011 L 735.926,359.233 L 736.321,358.455 L 736.615,357.703 L 736.768,356.9 L 736.831,356.122"/>
        <path style="fill: #0078aa" d="M 646.543 334.538 L 646.543,356.671 L 736.831,356.671 L 736.831,334.538 L 646.543,334.538z"/>
        <path style="fill: #00b4ff" d="M 737.367 334.271 L 737.29,333.467 L 737.125,332.651 L 736.844,331.874 L 736.449,331.083 L 735.913,330.293 L 735.289,329.528 L 734.537,328.776 L 733.695,328.049 L 732.726,327.31 L 731.655,326.621 L 730.495,325.92 L 729.233,325.257 L 727.869,324.594 L 726.415,323.995 L 724.86,323.396 L 723.228,322.822 L 721.533,322.286 L 719.748,321.789 L 717.899,321.318 L 715.974,320.884 L 713.985,320.489 L 711.933,320.106 L 709.842,319.775 L 707.725,319.469 L 705.545,319.214 L 703.327,318.997 L 701.083,318.819 L 698.814,318.678 L 696.544,318.576 L 694.25,318.513 L 691.955,318.5 L 691.955,318.5 L 689.647,318.513 L 687.352,318.576 L 685.083,318.678 L 682.814,318.819 L 680.57,318.997 L 678.352,319.214 L 676.171,319.469 L 674.042,319.775 L 671.952,320.106 L 669.912,320.489 L 667.923,320.884 L 665.998,321.318 L 664.149,321.789 L 662.364,322.286 L 660.656,322.822 L 659.037,323.396 L 657.481,323.995 L 656.028,324.594 L 654.664,325.257 L 653.402,325.92 L 652.242,326.621 L 651.171,327.31 L 650.202,328.049 L 649.36,328.776 L 648.608,329.528 L 647.983,330.293 L 647.448,331.083 L 647.04,331.874 L 646.747,332.651 L 646.594,333.467 L 646.53,334.271 L 646.53,334.271 L 646.594,335.061 L 646.747,335.864 L 647.04,336.655 L 647.448,337.42 L 647.983,338.21 L 648.608,338.975 L 649.36,339.727 L 650.202,340.479 L 651.171,341.206 L 652.242,341.894 L 653.402,342.583 L 654.664,343.271 L 656.028,343.909 L 657.481,344.521 L 659.037,345.12 L 660.656,345.681 L 662.364,346.229 L 664.149,346.714 L 665.998,347.185 L 667.923,347.632 L 669.912,348.052 L 671.952,348.396 L 674.042,348.741 L 676.171,349.047 L 678.352,349.289 L 680.57,349.506 L 682.814,349.684 L 685.083,349.824 L 687.352,349.939 L 689.647,350.003 L 691.955,350.016 L 691.955,350.016 L 694.25,350.003 L 696.544,349.939 L 698.814,349.824 L 701.083,349.684 L 703.327,349.506 L 705.545,349.289 L 707.725,349.047 L 709.842,348.741 L 711.933,348.396 L 713.985,348.052 L 715.974,347.632 L 717.899,347.185 L 719.748,346.714 L 721.533,346.229 L 723.228,345.681 L 724.86,345.12 L 726.415,344.521 L 727.869,343.909 L 729.233,343.271 L 730.495,342.583 L 731.655,341.894 L 732.726,341.206 L 733.695,340.479 L 734.537,339.727 L 735.289,338.975 L 735.913,338.21 L 736.449,337.42 L 736.844,336.655 L 737.125,335.864 L 737.29,335.061 L 737.367,334.271z"/>
        <path style="fill: none; fill-opacity:0; stroke-width: 0.02; stroke: #aae6ff" d="M 736.831 334.003 L 736.768,333.2 L 736.615,332.435 L 736.321,331.657 L 735.926,330.879 L 735.403,330.127 L 734.741,329.349 L 734.052,328.635 L 733.185,327.896 L 732.229,327.195 L 731.171,326.468 L 729.998,325.818 L 728.748,325.142 L 727.397,324.505 L 725.956,323.918 L 724.427,323.306 L 722.795,322.796 L 721.086,322.248 L 719.327,321.751 L 717.491,321.292 L 715.579,320.846 L 713.59,320.451 L 711.576,320.094 L 709.51,319.775 L 707.381,319.469 L 705.227,319.214 L 703.008,319.01 L 700.79,318.819 L 698.533,318.691 L 696.264,318.589 L 693.982,318.525 L 691.7,318.513 L 691.7,318.513 L 689.392,318.525 L 687.123,318.589 L 684.841,318.691 L 682.61,318.819 L 680.379,319.01 L 678.173,319.214 L 676.006,319.469 L 673.877,319.775 L 671.799,320.094 L 669.784,320.451 L 667.795,320.846 L 665.883,321.292 L 664.06,321.751 L 662.288,322.248 L 660.579,322.796 L 658.96,323.306 L 657.443,323.918 L 656.003,324.505 L 654.638,325.142 L 653.363,325.818 L 652.229,326.468 L 651.158,327.195 L 650.202,327.896 L 649.36,328.635 L 648.621,329.349 L 647.983,330.127 L 647.473,330.879 L 647.065,331.657 L 646.772,332.435 L 646.606,333.2 L 646.543,334.003 L 646.543,334.003 L 646.606,334.793 L 646.772,335.571 L 647.065,336.349 L 647.473,337.114 L 647.983,337.879 L 648.621,338.643 L 649.36,339.37 L 650.202,340.11 L 651.158,340.811 L 652.229,341.525 L 653.363,342.2 L 654.638,342.838 L 656.003,343.488 L 657.443,344.1 L 658.96,344.674 L 660.579,345.222 L 662.288,345.745 L 664.06,346.242 L 665.883,346.701 L 667.795,347.147 L 669.784,347.568 L 671.799,347.899 L 673.877,348.243 L 676.006,348.537 L 678.173,348.779 L 680.379,349.008 L 682.61,349.187 L 684.841,349.302 L 687.123,349.416 L 689.392,349.48 L 691.7,349.493 L 691.7,349.493 L 693.982,349.48 L 696.264,349.416 L 698.533,349.302 L 700.79,349.187 L 703.008,349.008 L 705.227,348.779 L 707.381,348.537 L 709.51,348.243 L 711.576,347.899 L 713.59,347.568 L 715.579,347.147 L 717.491,346.701 L 719.327,346.242 L 721.086,345.745 L 722.795,345.222 L 724.427,344.674 L 725.956,344.1 L 727.397,343.488 L 728.748,342.838 L 729.998,342.2 L 731.171,341.525 L 732.229,340.811 L 733.185,340.11 L 734.052,339.37 L 734.741,338.643 L 735.403,337.879 L 735.926,337.114 L 736.321,336.349 L 736.615,335.571 L 736.768,334.793 L 736.831,334.003"/>
        <path style="fill: #000000" d="M 692.796 330.688 L 699.4,332.906 L 715.375,326.251 L 722.527,328.457 L 718.664,322.949 L 699.961,322.949 L 707.649,324.594 L 692.796,330.688z"/>
        <path style="fill: #000000" d="M 690.03 336.769 L 683.438,334.538 L 668.012,341.206 L 660.312,338.975 L 664.149,345.056 L 683.438,345.056 L 675.164,342.838 L 690.03,336.769z"/>
        <path style="fill: #000000" d="M 661.956 324.594 L 668.548,322.388 L 684.535,328.457 L 691.7,326.812 L 687.85,332.32 L 669.109,332.32 L 676.809,330.688 L 661.956,324.594z"/>
        <path style="fill: #000000" d="M 721.418 343.386 L 714.801,345.604 L 699.4,338.975 L 691.7,341.206 L 695.55,335.647 L 714.801,335.647 L 706.552,337.305 L 721.418,343.386z"/>
        <path style="fill: #ffffff" d="M 693.344 331.236 L 699.961,333.442 L 715.897,326.812 L 723.075,329.031 L 719.212,323.485 L 700.497,323.485 L 708.21,325.129 L 693.344,331.236z"/>
        <path style="fill: #ffffff" d="M 690.591 337.305 L 683.961,335.099 L 668.548,341.729 L 660.847,339.523 L 664.697,345.604 L 683.961,345.604 L 675.713,343.386 L 690.591,337.305z"/>
        <path style="fill: #ffffff" d="M 662.505 325.129 L 669.109,322.949 L 685.083,329.031 L 692.235,327.348 L 688.398,332.906 L 669.657,332.906 L 677.383,331.236 L 662.505,325.129z"/>
        <path style="fill: #ffffff" d="M 721.953 343.96 L 715.375,346.165 L 699.961,339.523 L 692.235,341.729 L 696.085,336.221 L 715.375,336.221 L 707.113,337.866 L 721.953,343.96z"/>
        <path style="fill: none; fill-opacity:0; stroke-width: 0.02; stroke: #aae6ff" d="M 646.543 334.003 L 646.543,356.097"/>
        <path style="fill: none; fill-opacity:0; stroke-width: 0.02; stroke: #aae6ff" d="M 736.831 334.003 L 736.831,356.097"/>
      </g>
      <g>
        <rect style="fill: #ffffff" x="656.944" y="352.104" width="74.75" height="10.35"/>
        <text font-size="8.90693" style="fill: #000000;text-anchor:start;font-family:sans-serif;font-style:normal;font-weight:normal" x="656.944" y="360.354">
          <tspan x="656.944" y="360.354"> managed dev. 2</tspan>
        </text>
      </g>
    </g>
    <g>
      <g>
        <path style="fill: none; fill-opacity:0; stroke-width: 0.8; stroke: #00aed9" d="M 642.604 178.866 L 642.604,140.951"/>
        <path style="fill: none; fill-opacity:0; stroke-width: 4; stroke: #00aed9" d="M 642.604 178.254 L 642.604,152.247"/>
        <path style="fill: #000000" d="M 643.705 144.595 L 641.387,144.595 L 641.387,139.96 L 643.705,139.96 L 643.705,144.595z"/>
        <path style="fill: none; fill-opacity:0; stroke-width: 2; stroke: #00aed9" d="M 643.705 144.595 L 641.387,144.595 L 641.387,139.96 L 643.705,139.96 L 643.705,144.595"/>
        <path style="fill: none; fill-opacity:0; stroke-width: 0.8; stroke: #00aed9" d="M 586.404 178.866 L 586.404,140.951"/>
        <path style="fill: none; fill-opacity:0; stroke-width: 4; stroke: #00aed9" d="M 586.404 178.254 L 586.404,152.247"/>
        <path style="fill: #000000" d="M 587.505 144.595 L 585.187,144.595 L 585.187,139.96 L 587.505,139.96 L 587.505,144.595z"/>
        <path style="fill: none; fill-opacity:0; stroke-width: 2; stroke: #00aed9" d="M 587.505 144.595 L 585.187,144.595 L 585.187,139.96 L 587.505,139.96 L 587.505,144.595"/>
        <path style="fill: #00aed9" d="M 658.324 183.68 C 658.324,192.834 639.241,200.255 615.7,200.255 C 592.158,200.255 573.076,192.834 573.076,183.68 L 573.076,207.958 C 573.076,217.115 592.158,224.535 615.7,224.535 C 639.241,224.535 658.324,217.115 658.324,207.958 L 658.324,183.68z"/>
        <path style="fill: none; fill-opacity:0; stroke-width: 0.8; stroke: #ffffff" d="M 658.324 183.68 C 658.324,192.834 639.241,200.255 615.7,200.255 C 592.158,200.255 573.076,192.834 573.076,183.68 L 573.076,207.958 C 573.076,217.115 592.158,224.535 615.7,224.535 C 639.241,224.535 658.324,217.115 658.324,207.958 L 658.324,183.68"/>
        <path style="fill: #00aed9" d="M 615.7 200.255 C 639.241,200.255 658.324,192.834 658.324,183.68 C 658.324,174.523 639.241,167.102 615.7,167.102 C 592.158,167.102 573.076,174.523 573.076,183.68 C 573.076,192.834 592.158,200.255 615.7,200.255z"/>
        <path style="fill: none; fill-opacity:0; stroke-width: 0.8; stroke: #ffffff" d="M 615.7 200.255 C 639.241,200.255 658.324,192.834 658.324,183.68 C 658.324,174.523 639.241,167.102 615.7,167.102 C 592.158,167.102 573.076,174.523 573.076,183.68 C 573.076,192.834 592.158,200.255 615.7,200.255"/>
        <path style="fill: #ffffff" d="M 605.966 177.198 L 609.487,182.477 L 596.179,185.552 L 599.086,183.133 L 578.518,179.617 L 583.679,175.749 L 603.524,179.109 L 605.966,177.198z"/>
        <path style="fill: #ffffff" d="M 624.694 190 L 622.291,184.558 L 634.293,182.159 L 632.212,184.023 L 652.219,187.441 L 647.422,191.281 L 627.531,187.548 L 624.694,190z"/>
        <path style="fill: #ffffff" d="M 618.129 174.315 L 631.575,170.634 L 631.732,176.398 L 628.374,175.756 L 621.809,181.198 L 615.549,180.284 L 622.321,174.961 L 618.129,174.315z"/>
        <path style="fill: #ffffff" d="M 612.367 194.964 L 599.565,197.362 L 599.086,191.443 L 602.763,192.241 L 609.811,186.222 L 616.05,187.279 L 608.527,193.842 L 612.367,194.964z"/>
      </g>
      <g>
        <rect style="fill: #ffffff" x="599.654" y="204.498" width="32.65" height="14.9"/>
        <text font-size="12.8" style="fill: #000000;text-anchor:start;font-family:sans-serif;font-style:normal;font-weight:normal" x="599.654" y="216.398">
          <tspan x="599.654" y="216.398">  AP  </tspan>
        </text>
      </g>
    </g>
    <g>
      <path style="fill: #ffffff" d="M 143.837 131.162 C 130.562,130.844 104.817,137.527 108.438,151.85 C 112.058,166.172 129.356,169.355 136.596,165.218 C 143.837,161.08 125.333,185.269 160.732,191.635 C 196.132,198 214.234,187.815 209.004,180.495 C 203.775,173.174 239.979,197.682 256.874,183.678 C 273.769,169.673 239.576,156.306 246.817,158.216 C 254.058,160.125 276.183,157.579 268.942,133.708 C 261.701,109.837 196.534,128.297 203.775,124.796 C 211.015,121.295 192.913,103.79 170.387,107.291 C 147.86,110.792 146.262,117.145 143.849,131.149 L 143.837,131.162z"/>
      <path style="fill: none; fill-opacity:0; stroke-width: 2; stroke: #000000" d="M 143.837 131.162 C 130.562,130.844 104.817,137.527 108.438,151.85 C 112.058,166.172 129.356,169.355 136.596,165.218 C 143.837,161.08 125.333,185.269 160.732,191.635 C 196.132,198 214.234,187.815 209.004,180.495 C 203.775,173.174 239.979,197.682 256.874,183.678 C 273.769,169.673 239.576,156.306 246.817,158.216 C 254.058,160.125 276.183,157.579 268.942,133.708 C 261.701,109.837 196.534,128.297 203.775,124.796 C 211.015,121.295 192.913,103.79 170.387,107.291 C 147.86,110.792 146.262,117.145 143.849,131.149 L 143.837,131.162"/>
      <text font-size="12.8" style="fill: #000000;text-anchor:middle;font-family:sans-serif;font-style:normal;font-weight:normal" x="195.094" y="148.556">
        <tspan x="195.094" y="148.556">Cloud Service</tspan>
        <tspan x="195.094" y="164.556">(BaaS)</tspan>
      </text>
    </g>
    <g>
      <path style="fill: #000077" d="M 155.994 241.5 C 155.061,241.5 154.304,242.257 154.304,243.19 L 154.304,369.36 C 154.304,370.293 155.061,371.05 155.994,371.05 L 208.941,371.05 C 209.874,371.05 210.63,370.293 210.63,369.36 L 210.63,243.19 C 210.63,242.257 209.874,241.5 208.941,241.5 L 155.994,241.5z"/>
      <path style="fill: none; fill-opacity:0; stroke-width: 2; stroke: #000000" d="M 155.994 241.5 C 155.061,241.5 154.304,242.257 154.304,243.19 L 154.304,369.36 C 154.304,370.293 155.061,371.05 155.994,371.05 L 208.941,371.05 C 209.874,371.05 210.63,370.293 210.63,369.36 L 210.63,243.19 C 210.63,242.257 209.874,241.5 208.941,241.5 L 155.994,241.5"/>
      <line style="fill: none; fill-opacity:0; stroke-width: 0.2; stroke: #000000" x1="171.202" y1="248.259" x2="171.202" y2="257.271"/>
      <line style="fill: none; fill-opacity:0; stroke-width: 0.2; stroke: #000000" x1="176.835" y1="247.133" x2="176.835" y2="258.398"/>
      <line style="fill: none; fill-opacity:0; stroke-width: 0.2; stroke: #000000" x1="182.467" y1="247.133" x2="182.467" y2="258.398"/>
      <line style="fill: none; fill-opacity:0; stroke-width: 0.2; stroke: #000000" x1="188.1" y1="247.133" x2="188.1" y2="258.398"/>
      <line style="fill: none; fill-opacity:0; stroke-width: 0.2; stroke: #000000" x1="193.733" y1="248.259" x2="193.733" y2="257.271"/>
      <path style="fill: #90ee90" d="M 161.627 264.03 C 160.694,264.03 159.937,264.787 159.937,265.72 L 159.937,284.871 C 159.937,285.804 160.694,286.561 161.627,286.561 L 203.308,286.561 C 204.241,286.561 204.998,285.804 204.998,284.871 L 204.998,265.72 C 204.998,264.787 204.241,264.03 203.308,264.03 L 161.627,264.03z"/>
      <path style="fill: none; fill-opacity:0; stroke-width: 2; stroke: #000000" d="M 161.627 264.03 C 160.694,264.03 159.937,264.787 159.937,265.72 L 159.937,284.871 C 159.937,285.804 160.694,286.561 161.627,286.561 L 203.308,286.561 C 204.241,286.561 204.998,285.804 204.998,284.871 L 204.998,265.72 C 204.998,264.787 204.241,264.03 203.308,264.03 L 161.627,264.03"/>
      <rect style="fill: #bfbfbf" x="159.937" y="292.193" width="16.8978" height="5.63261"/>
      <rect style="fill: none; fill-opacity:0; stroke-width: 2; stroke: #000000" x="159.937" y="292.193" width="16.8978" height="5.63261"/>
      <rect style="fill: #bfbfbf" x="188.1" y="292.193" width="16.8978" height="5.63261"/>
      <rect style="fill: none; fill-opacity:0; stroke-width: 2; stroke: #000000" x="188.1" y="292.193" width="16.8978" height="5.63261"/>
      <rect style="fill: #bfbfbf" x="159.937" y="303.459" width="16.8978" height="5.63261"/>
      <rect style="fill: none; fill-opacity:0; stroke-width: 2; stroke: #000000" x="159.937" y="303.459" width="16.8978" height="5.63261"/>
      <rect style="fill: #bfbfbf" x="188.1" y="303.459" width="16.8978" height="5.63261"/>
      <rect style="fill: none; fill-opacity:0; stroke-width: 2; stroke: #000000" x="188.1" y="303.459" width="16.8978" height="5.63261"/>
      <rect style="fill: #bfbfbf" x="159.937" y="314.724" width="11.2652" height="5.63261"/>
      <rect style="fill: none; fill-opacity:0; stroke-width: 2; stroke: #000000" x="159.937" y="314.724" width="11.2652" height="5.63261"/>
      <rect style="fill: #bfbfbf" x="176.835" y="314.724" width="11.2652" height="5.63261"/>
      <rect style="fill: none; fill-opacity:0; stroke-width: 2; stroke: #000000" x="176.835" y="314.724" width="11.2652" height="5.63261"/>
      <rect style="fill: #bfbfbf" x="193.733" y="314.724" width="11.2652" height="5.63261"/>
      <rect style="fill: none; fill-opacity:0; stroke-width: 2; stroke: #000000" x="193.733" y="314.724" width="11.2652" height="5.63261"/>
      <rect style="fill: #bfbfbf" x="159.937" y="325.989" width="11.2652" height="5.63261"/>
      <rect style="fill: none; fill-opacity:0; stroke-width: 2; stroke: #000000" x="159.937" y="325.989" width="11.2652" height="5.63261"/>
      <rect style="fill: #bfbfbf" x="176.835" y="325.989" width="11.2652" height="5.63261"/>
      <rect style="fill: none; fill-opacity:0; stroke-width: 2; stroke: #000000" x="176.835" y="325.989" width="11.2652" height="5.63261"/>
      <rect style="fill: #bfbfbf" x="193.733" y="325.989" width="11.2652" height="5.63261"/>
      <rect style="fill: none; fill-opacity:0; stroke-width: 2; stroke: #000000" x="193.733" y="325.989" width="11.2652" height="5.63261"/>
      <rect style="fill: #bfbfbf" x="159.937" y="337.254" width="11.2652" height="5.63261"/>
      <rect style="fill: none; fill-opacity:0; stroke-width: 2; stroke: #000000" x="159.937" y="337.254" width="11.2652" height="5.63261"/>
      <rect style="fill: #bfbfbf" x="176.835" y="337.254" width="11.2652" height="5.63261"/>
      <rect style="fill: none; fill-opacity:0; stroke-width: 2; stroke: #000000" x="176.835" y="337.254" width="11.2652" height="5.63261"/>
      <rect style="fill: #bfbfbf" x="193.733" y="337.254" width="11.2652" height="5.63261"/>
      <rect style="fill: none; fill-opacity:0; stroke-width: 2; stroke: #000000" x="193.733" y="337.254" width="11.2652" height="5.63261"/>
      <rect style="fill: #bfbfbf" x="159.937" y="348.52" width="11.2652" height="5.63261"/>
      <rect style="fill: none; fill-opacity:0; stroke-width: 2; stroke: #000000" x="159.937" y="348.52" width="11.2652" height="5.63261"/>
      <rect style="fill: #bfbfbf" x="176.835" y="348.52" width="11.2652" height="5.63261"/>
      <rect style="fill: none; fill-opacity:0; stroke-width: 2; stroke: #000000" x="176.835" y="348.52" width="11.2652" height="5.63261"/>
      <rect style="fill: #bfbfbf" x="193.733" y="348.52" width="11.2652" height="5.63261"/>
      <rect style="fill: none; fill-opacity:0; stroke-width: 2; stroke: #000000" x="193.733" y="348.52" width="11.2652" height="5.63261"/>
      <line style="fill: none; fill-opacity:0; stroke-width: 0.2; stroke: #000000" x1="171.202" y1="360.911" x2="171.202" y2="364.291"/>
      <line style="fill: none; fill-opacity:0; stroke-width: 0.2; stroke: #000000" x1="176.835" y1="359.785" x2="176.835" y2="365.417"/>
      <line style="fill: none; fill-opacity:0; stroke-width: 0.2; stroke: #000000" x1="182.467" y1="359.785" x2="182.467" y2="365.417"/>
      <line style="fill: none; fill-opacity:0; stroke-width: 0.2; stroke: #000000" x1="188.1" y1="359.785" x2="188.1" y2="365.417"/>
      <line style="fill: none; fill-opacity:0; stroke-width: 0.2; stroke: #000000" x1="193.733" y1="360.911" x2="193.733" y2="364.291"/>
    </g>
    <g>
      <rect style="fill: #ffffff" x="22.9436" y="242.108" width="121.95" height="54"/>
      <rect style="fill: none; fill-opacity:0; stroke-width: 2; stroke: #000000" x="22.9436" y="242.108" width="121.95" height="54"/>
      <text font-size="12.8" style="fill: #000000;text-anchor:middle;font-family:sans-serif;font-style:normal;font-weight:normal" x="83.9186" y="265.008">
        <tspan x="83.9186" y="265.008">Cloud service's</tspan>
        <tspan x="83.9186" y="281.008">Trust circle</tspan>
      </text>
    </g>
    <text font-size="12.7998" style="fill: #000000;text-anchor:start;font-family:sans-serif;font-style:normal;font-weight:normal" x="184.663" y="245.608">
      <tspan x="184.663" y="245.608"></tspan>
    </text>
    <text font-size="12.7998" style="fill: #000000;text-anchor:start;font-family:sans-serif;font-style:normal;font-weight:normal" x="184.663" y="245.608">
      <tspan x="184.663" y="245.608"></tspan>
    </text>
    <g>
      <rect style="fill: #ffffff" x="135.988" y="373.208" width="98.35" height="30.9"/>
      <text font-size="12.7998" style="fill: #000000;text-anchor:middle;font-family:sans-serif;font-style:normal;font-weight:normal" x="185.163" y="385.108">
        <tspan x="185.163" y="385.108">Local controller</tspan>
        <tspan x="185.163" y="401.108">(smartphone)</tspan>
      </text>
    </g>
    <g>
      <g>
        <path style="fill: #0078aa" d="M 817.435 202.256 L 817.356,201.426 L 817.184,200.596 L 816.895,199.779 L 816.486,198.975 L 815.933,198.158 L 815.287,197.367 L 814.51,196.59 L 813.64,195.826 L 812.638,195.075 L 811.532,194.35 L 810.332,193.651 L 809.028,192.94 L 807.618,192.268 L 806.116,191.635 L 804.508,191.029 L 802.822,190.45 L 801.069,189.883 L 799.224,189.369 L 797.314,188.881 L 795.324,188.42 L 793.268,187.999 L 791.147,187.643 L 788.986,187.274 L 786.799,186.984 L 784.545,186.707 L 782.253,186.496 L 779.934,186.299 L 777.588,186.167 L 775.243,186.035 L 772.871,185.996 L 770.499,185.956 L 770.499,185.956 L 768.114,185.996 L 765.742,186.035 L 763.397,186.167 L 761.051,186.299 L 758.732,186.496 L 756.439,186.707 L 754.186,186.984 L 751.985,187.274 L 749.824,187.643 L 747.716,187.999 L 745.661,188.42 L 743.671,188.881 L 741.76,189.369 L 739.915,189.883 L 738.15,190.45 L 736.476,191.029 L 734.869,191.635 L 733.367,192.268 L 731.957,192.94 L 730.652,193.651 L 729.453,194.35 L 728.346,195.075 L 727.345,195.826 L 726.475,196.59 L 725.698,197.367 L 725.052,198.158 L 724.499,198.975 L 724.077,199.779 L 723.774,200.596 L 723.616,201.426 L 723.55,202.256 L 723.55,202.256 L 723.616,203.073 L 723.774,203.903 L 724.077,204.72 L 724.499,205.524 L 725.052,206.341 L 725.698,207.131 L 726.475,207.909 L 727.345,208.673 L 728.346,209.424 L 729.453,210.149 L 730.652,210.874 L 731.957,211.559 L 733.367,212.231 L 734.869,212.863 L 736.476,213.496 L 738.15,214.076 L 739.915,214.616 L 741.76,215.143 L 743.671,215.617 L 745.661,216.078 L 747.716,216.5 L 749.824,216.882 L 751.985,217.225 L 754.186,217.541 L 756.439,217.791 L 758.732,218.029 L 761.051,218.2 L 763.397,218.358 L 765.742,218.463 L 768.114,218.529 L 770.499,218.543 L 770.499,218.543 L 772.871,218.529 L 775.243,218.463 L 777.588,218.358 L 779.934,218.2 L 782.253,218.029 L 784.545,217.791 L 786.799,217.541 L 788.986,217.225 L 791.147,216.882 L 793.268,216.5 L 795.324,216.078 L 797.314,215.617 L 799.224,215.143 L 801.069,214.616 L 802.822,214.076 L 804.508,213.496 L 806.116,212.863 L 807.618,212.231 L 809.028,211.559 L 810.332,210.874 L 811.532,210.149 L 812.638,209.424 L 813.64,208.673 L 814.51,207.909 L 815.287,207.131 L 815.933,206.341 L 816.486,205.524 L 816.895,204.72 L 817.184,203.903 L 817.356,203.073 L 817.435,202.256z"/>
        <path style="fill: none; fill-opacity:0; stroke-width: 0.02; stroke: #aae6ff" d="M 816.881 201.992 L 816.815,201.162 L 816.657,200.372 L 816.354,199.555 L 815.946,198.764 L 815.406,197.973 L 814.72,197.196 L 814.009,196.445 L 813.113,195.681 L 812.125,194.943 L 811.031,194.205 L 809.819,193.52 L 808.527,192.835 L 807.13,192.176 L 805.642,191.543 L 804.06,190.937 L 802.374,190.384 L 800.608,189.857 L 798.79,189.316 L 796.892,188.868 L 794.916,188.394 L 792.86,187.985 L 790.778,187.617 L 788.643,187.274 L 786.443,186.984 L 784.216,186.707 L 781.923,186.496 L 779.63,186.299 L 777.298,186.167 L 774.953,186.075 L 772.594,185.996 L 770.235,185.996 L 770.235,185.996 L 767.85,185.996 L 765.505,186.075 L 763.146,186.167 L 760.84,186.299 L 758.534,186.496 L 756.255,186.707 L 754.015,186.984 L 751.814,187.274 L 749.666,187.617 L 747.584,187.985 L 745.529,188.394 L 743.552,188.868 L 741.668,189.316 L 739.836,189.857 L 738.071,190.384 L 736.397,190.937 L 734.829,191.543 L 733.34,192.176 L 731.93,192.835 L 730.613,193.52 L 729.44,194.205 L 728.333,194.943 L 727.345,195.681 L 726.475,196.445 L 725.711,197.196 L 725.052,197.973 L 724.525,198.764 L 724.103,199.555 L 723.8,200.372 L 723.629,201.162 L 723.563,201.992 L 723.563,201.992 L 723.629,202.796 L 723.8,203.626 L 724.103,204.404 L 724.525,205.208 L 725.052,206.011 L 725.711,206.776 L 726.475,207.54 L 727.345,208.304 L 728.333,209.029 L 729.44,209.767 L 730.613,210.465 L 731.93,211.124 L 733.34,211.796 L 734.829,212.442 L 736.397,213.021 L 738.071,213.588 L 739.836,214.128 L 741.668,214.655 L 743.552,215.117 L 745.529,215.565 L 747.584,215.986 L 749.666,216.355 L 751.814,216.685 L 754.015,217.001 L 756.255,217.264 L 758.534,217.475 L 760.84,217.66 L 763.146,217.791 L 765.505,217.91 L 767.85,217.976 L 770.235,217.989 L 770.235,217.989 L 772.594,217.976 L 774.953,217.91 L 777.298,217.791 L 779.63,217.66 L 781.923,217.475 L 784.216,217.264 L 786.443,217.001 L 788.643,216.685 L 790.778,216.355 L 792.86,215.986 L 794.916,215.565 L 796.892,215.117 L 798.79,214.655 L 800.608,214.128 L 802.374,213.588 L 804.06,213.021 L 805.642,212.442 L 807.13,211.796 L 808.527,211.124 L 809.819,210.465 L 811.031,209.767 L 812.125,209.029 L 813.113,208.304 L 814.009,207.54 L 814.72,206.776 L 815.406,206.011 L 815.946,205.208 L 816.354,204.404 L 816.657,203.626 L 816.815,202.796 L 816.881,201.992"/>
        <path style="fill: #0078aa" d="M 723.563 179.684 L 723.563,202.559 L 816.881,202.559 L 816.881,179.684 L 723.563,179.684z"/>
        <path style="fill: #00b4ff" d="M 817.435 179.407 L 817.356,178.577 L 817.184,177.734 L 816.895,176.93 L 816.486,176.113 L 815.933,175.296 L 815.287,174.506 L 814.51,173.728 L 813.64,172.977 L 812.638,172.213 L 811.532,171.501 L 810.332,170.777 L 809.028,170.091 L 807.618,169.406 L 806.116,168.787 L 804.508,168.168 L 802.822,167.575 L 801.069,167.021 L 799.224,166.507 L 797.314,166.02 L 795.324,165.572 L 793.268,165.163 L 791.147,164.768 L 788.986,164.425 L 786.799,164.109 L 784.545,163.846 L 782.253,163.621 L 779.934,163.437 L 777.588,163.292 L 775.243,163.187 L 772.871,163.121 L 770.499,163.108 L 770.499,163.108 L 768.114,163.121 L 765.742,163.187 L 763.397,163.292 L 761.051,163.437 L 758.732,163.621 L 756.439,163.846 L 754.186,164.109 L 751.985,164.425 L 749.824,164.768 L 747.716,165.163 L 745.661,165.572 L 743.671,166.02 L 741.76,166.507 L 739.915,167.021 L 738.15,167.575 L 736.476,168.168 L 734.869,168.787 L 733.367,169.406 L 731.957,170.091 L 730.652,170.777 L 729.453,171.501 L 728.346,172.213 L 727.345,172.977 L 726.475,173.728 L 725.698,174.506 L 725.052,175.296 L 724.499,176.113 L 724.077,176.93 L 723.774,177.734 L 723.616,178.577 L 723.55,179.407 L 723.55,179.407 L 723.616,180.224 L 723.774,181.054 L 724.077,181.871 L 724.499,182.662 L 725.052,183.479 L 725.698,184.27 L 726.475,185.047 L 727.345,185.824 L 728.346,186.576 L 729.453,187.287 L 730.652,187.999 L 731.957,188.71 L 733.367,189.369 L 734.869,190.002 L 736.476,190.621 L 738.15,191.201 L 739.915,191.767 L 741.76,192.268 L 743.671,192.755 L 745.661,193.217 L 747.716,193.651 L 749.824,194.007 L 751.985,194.363 L 754.186,194.679 L 756.439,194.93 L 758.732,195.154 L 761.051,195.338 L 763.397,195.483 L 765.742,195.602 L 768.114,195.668 L 770.499,195.681 L 770.499,195.681 L 772.871,195.668 L 775.243,195.602 L 777.588,195.483 L 779.934,195.338 L 782.253,195.154 L 784.545,194.93 L 786.799,194.679 L 788.986,194.363 L 791.147,194.007 L 793.268,193.651 L 795.324,193.217 L 797.314,192.755 L 799.224,192.268 L 801.069,191.767 L 802.822,191.201 L 804.508,190.621 L 806.116,190.002 L 807.618,189.369 L 809.028,188.71 L 810.332,187.999 L 811.532,187.287 L 812.638,186.576 L 813.64,185.824 L 814.51,185.047 L 815.287,184.27 L 815.933,183.479 L 816.486,182.662 L 816.895,181.871 L 817.184,181.054 L 817.356,180.224 L 817.435,179.407z"/>
        <path style="fill: none; fill-opacity:0; stroke-width: 0.02; stroke: #aae6ff" d="M 816.881 179.131 L 816.815,178.3 L 816.657,177.51 L 816.354,176.706 L 815.946,175.902 L 815.406,175.125 L 814.72,174.321 L 814.009,173.583 L 813.113,172.819 L 812.125,172.094 L 811.031,171.343 L 809.819,170.671 L 808.527,169.973 L 807.13,169.314 L 805.642,168.708 L 804.06,168.075 L 802.374,167.548 L 800.608,166.982 L 798.79,166.468 L 796.892,165.993 L 794.916,165.532 L 792.86,165.124 L 790.778,164.755 L 788.643,164.425 L 786.443,164.109 L 784.216,163.846 L 781.923,163.635 L 779.63,163.437 L 777.298,163.305 L 774.953,163.2 L 772.594,163.134 L 770.235,163.121 L 770.235,163.121 L 767.85,163.134 L 765.505,163.2 L 763.146,163.305 L 760.84,163.437 L 758.534,163.635 L 756.255,163.846 L 754.015,164.109 L 751.814,164.425 L 749.666,164.755 L 747.584,165.124 L 745.529,165.532 L 743.552,165.993 L 741.668,166.468 L 739.836,166.982 L 738.071,167.548 L 736.397,168.075 L 734.829,168.708 L 733.34,169.314 L 731.93,169.973 L 730.613,170.671 L 729.44,171.343 L 728.333,172.094 L 727.345,172.819 L 726.475,173.583 L 725.711,174.321 L 725.052,175.125 L 724.525,175.902 L 724.103,176.706 L 723.8,177.51 L 723.629,178.3 L 723.563,179.131 L 723.563,179.131 L 723.629,179.948 L 723.8,180.751 L 724.103,181.555 L 724.525,182.346 L 725.052,183.136 L 725.711,183.927 L 726.475,184.678 L 727.345,185.442 L 728.333,186.167 L 729.44,186.905 L 730.613,187.603 L 731.93,188.262 L 733.34,188.934 L 734.829,189.567 L 736.397,190.16 L 738.071,190.726 L 739.836,191.266 L 741.668,191.78 L 743.552,192.255 L 745.529,192.716 L 747.584,193.151 L 749.666,193.493 L 751.814,193.849 L 754.015,194.152 L 756.255,194.403 L 758.534,194.64 L 760.84,194.824 L 763.146,194.943 L 765.505,195.061 L 767.85,195.127 L 770.235,195.14 L 770.235,195.14 L 772.594,195.127 L 774.953,195.061 L 777.298,194.943 L 779.63,194.824 L 781.923,194.64 L 784.216,194.403 L 786.443,194.152 L 788.643,193.849 L 790.778,193.493 L 792.86,193.151 L 794.916,192.716 L 796.892,192.255 L 798.79,191.78 L 800.608,191.266 L 802.374,190.726 L 804.06,190.16 L 805.642,189.567 L 807.13,188.934 L 808.527,188.262 L 809.819,187.603 L 811.031,186.905 L 812.125,186.167 L 813.113,185.442 L 814.009,184.678 L 814.72,183.927 L 815.406,183.136 L 815.946,182.346 L 816.354,181.555 L 816.657,180.751 L 816.815,179.948 L 816.881,179.131"/>
        <path style="fill: #000000" d="M 771.369 175.705 L 778.194,177.997 L 794.705,171.119 L 802.097,173.399 L 798.104,167.706 L 778.774,167.706 L 786.72,169.406 L 771.369,175.705z"/>
        <path style="fill: #000000" d="M 768.509 181.99 L 761.697,179.684 L 745.753,186.576 L 737.794,184.27 L 741.76,190.555 L 761.697,190.555 L 753.145,188.262 L 768.509,181.99z"/>
        <path style="fill: #000000" d="M 739.494 169.406 L 746.306,167.127 L 762.83,173.399 L 770.235,171.699 L 766.256,177.391 L 746.886,177.391 L 754.845,175.705 L 739.494,169.406z"/>
        <path style="fill: #000000" d="M 800.951 188.829 L 794.112,191.122 L 778.194,184.27 L 770.235,186.576 L 774.215,180.83 L 794.112,180.83 L 785.586,182.543 L 800.951,188.829z"/>
        <path style="fill: #ffffff" d="M 771.935 176.271 L 778.774,178.551 L 795.245,171.699 L 802.664,173.992 L 798.671,168.26 L 779.327,168.26 L 787.299,169.96 L 771.935,176.271z"/>
        <path style="fill: #ffffff" d="M 769.089 182.543 L 762.237,180.264 L 746.306,187.116 L 738.347,184.836 L 742.327,191.122 L 762.237,191.122 L 753.712,188.829 L 769.089,182.543z"/>
        <path style="fill: #ffffff" d="M 740.06 169.96 L 746.886,167.706 L 763.397,173.992 L 770.789,172.252 L 766.823,177.997 L 747.453,177.997 L 755.438,176.271 L 740.06,169.96z"/>
        <path style="fill: #ffffff" d="M 801.504 189.422 L 794.705,191.701 L 778.774,184.836 L 770.789,187.116 L 774.768,181.423 L 794.705,181.423 L 786.166,183.123 L 801.504,189.422z"/>
        <path style="fill: none; fill-opacity:0; stroke-width: 0.02; stroke: #aae6ff" d="M 723.563 179.131 L 723.563,201.966"/>
        <path style="fill: none; fill-opacity:0; stroke-width: 0.02; stroke: #aae6ff" d="M 816.881 179.131 L 816.881,201.966"/>
      </g>
      <g>
        <rect style="fill: #ffffff" x="737.468" y="198.994" width="74.75" height="10.35"/>
        <text font-size="8.90693" style="fill: #000000;text-anchor:start;font-family:sans-serif;font-style:normal;font-weight:normal" x="737.468" y="207.244">
          <tspan x="737.468" y="207.244"> managed dev. 1</tspan>
        </text>
      </g>
    </g>
  </g>
</svg>
